#!OML:ASF E:\motion texture\Top Level 1\Subject 1\Session 1\male.ASF
:FULLY-SPECIFIED
:DEGREES
218
root 28.3283 17.4792 4.8045 383.628 -81.9901 -377.919
lowerback -0.605298 0.0265581 2.32968
upperback -0.75496 0.0257828 -0.0215484
thorax -0.432784 -4.54555e-005 -1.32756
lowerneck -16.4732 -2.39803 -5.44364
upperneck 6.86673 -3.07967 8.81468
head 4.96639 -1.08606 3.37671
rclavicle 2.33324e-014 -3.97569e-016
rhumerus 21.7632 33.1321 -77.48
rradius 82.9564
rwrist 24.5336
rhand -35.1516 -33.0665
rfingers 7.12502
rthumb -8.29109 -62.8838
lclavicle 2.33324e-014 -3.97569e-016
lhumerus 19.4621 -31.6452 82.0296
lradius 78.3798
lwrist 13.7718
lhand -14.7507 37.8784
lfingers 7.12502
lthumb 11.4052 67.5482
rfemur -30.4619 -4.34265 20.0487
rtibia 24.663
rfoot -1.32792 -12.5817
rtoes 9.2377
lfemur -7.18493 -5.26028 -16.6813
ltibia 38.2844
lfoot -10.4461 -4.61165
ltoes -13.5169
219
root 28.1783 17.4918 4.7707 385.094 -81.7231 -379.481
lowerback -0.551148 0.0803365 2.42544
upperback -0.759256 0.0988022 -0.0103305
thorax -0.464521 0.0355879 -1.36967
lowerneck -16.3731 -2.46291 -5.56917
upperneck 6.71736 -3.1479 8.92675
head 4.9132 -1.12035 3.42594
rclavicle 4.42296e-015 -3.77691e-015
rhumerus 22.7667 33.1918 -76.8518
rradius 82.9577
rwrist 24.8453
rhand -35.4123 -33.3377
rfingers 7.12502
rthumb -8.54269 -63.1449
lclavicle 4.42296e-015 -3.77691e-015
lhumerus 20.3379 -31.6025 81.6413
lradius 78.6307
lwrist 13.8423
lhand -14.911 38.1759
lfingers 7.12502
lthumb 11.2505 67.8542
rfemur -30.0145 -4.51868 20.6124
rtibia 24.8903
rfoot -1.53649 -12.4441
rtoes 9.58053
lfemur -7.80781 -5.0614 -16.0641
ltibia 39.6402
lfoot -9.77525 -4.55011
ltoes -13.9065
220
root 28.0285 17.5055 4.73648 386.494 -81.4476 -380.975
lowerback -0.498052 0.136915 2.51784
upperback -0.764839 0.175669 -0.000416462
thorax -0.496619 0.073107 -1.41132
lowerneck -16.2746 -2.53158 -5.70121
upperneck 6.56775 -3.22049 9.04442
head 4.86099 -1.15663 3.47769
rclavicle -6.63444e-015 -1.19271e-015
rhumerus 23.7797 33.2296 -76.2127
rradius 82.9477
rwrist 25.1705
rhand -35.6785 -33.6067
rfingers 7.12502
rthumb -8.79959 -63.4032
lclavicle -6.63444e-015 -1.19271e-015
lhumerus 21.2161 -31.5358 81.2563
lradius 78.8556
lwrist 13.856
lhand -15.0836 38.4456
lfingers 7.12502
lthumb 11.0841 68.1329
rfemur -29.5401 -4.69082 21.1814
rtibia 25.0872
rfoot -1.74952 -12.3258
rtoes 9.92073
lfemur -8.47149 -4.85719 -15.4355
ltibia 40.9845
lfoot -9.1073 -4.45596
ltoes -14.2736
221
root 27.8789 17.5201 4.70188 387.829 -81.1625 -382.4
lowerback -0.44442 0.196708 2.6054
upperback -0.774698 0.257009 0.00939623
thorax -0.533008 0.112751 -1.45049
lowerneck -16.1811 -2.60322 -5.83622
upperneck 6.42513 -3.29692 9.16351
head 4.81237 -1.1946 3.53012
rclavicle -1.635e-014 1.19271e-015
rhumerus 24.7949 33.2427 -75.5648
rradius 82.9274
rwrist 25.5127
rhand -35.9301 -33.8655
rfingers 7.12502
rthumb -9.04237 -63.6517
lclavicle -1.635e-014 1.19271e-015
lhumerus 22.0945 -31.4488 80.8781
lradius 79.0553
lwrist 13.8099
lhand -15.2774 38.7008
lfingers 7.12502
lthumb 10.8972 68.3981
rfemur -29.0402 -4.85802 21.7544
rtibia 25.2469
rfoot -1.96039 -12.2278
rtoes 10.2483
lfemur -9.17559 -4.64924 -14.7966
ltibia 42.3095
lfoot -8.45049 -4.32948
ltoes -14.6173
222
root 27.7296 17.5355 4.66701 389.082 -80.8692 -383.74
lowerback -0.385734 0.259575 2.68651
upperback -0.792429 0.342824 0.0174876
thorax -0.579908 0.154397 -1.48799
lowerneck -16.087 -2.67867 -5.97638
upperneck 6.28929 -3.37837 9.287
head 4.76662 -1.23485 3.58443
rclavicle -6.16729e-014 -8.34896e-015
rhumerus 25.8066 33.232 -74.9135
rradius 82.8972
rwrist 25.872
rhand -36.1697 -34.125
rfingers 7.12502
rthumb -9.27351 -63.901
lclavicle -6.16729e-014 -8.34896e-015
lhumerus 22.9654 -31.3415 80.5119
lradius 79.2275
lwrist 13.7026
lhand -15.4865 38.9422
lfingers 7.12502
lthumb 10.6955 68.6499
rfemur -28.5146 -5.01941 22.3269
rtibia 25.3643
rfoot -2.17104 -12.1534
rtoes 10.5711
lfemur -9.91649 -4.43836 -14.1525
ltibia 43.6063
lfoot -7.81361 -4.17174
ltoes -14.939
223
root 27.5807 17.5517 4.63189 390.266 -80.5663 -385.007
lowerback -0.326182 0.324062 2.76394
upperback -0.813883 0.431 0.0244082
thorax -0.63081 0.197098 -1.5248
lowerneck -15.9969 -2.75638 -6.12317
upperneck 6.15738 -3.46234 9.41666
head 4.72345 -1.27602 3.64165
rclavicle -1.7344e-014 9.93923e-015
rhumerus 26.8228 33.1976 -74.2569
rradius 82.8559
rwrist 26.2492
rhand -36.4096 -34.3776
rfingers 7.12502
rthumb -9.50506 -64.1432
lclavicle -1.7344e-014 9.93923e-015
lhumerus 23.8356 -31.2076 80.1569
lradius 79.3696
lwrist 13.529
lhand -15.7128 39.1657
lfingers 7.12502
lthumb 10.4772 68.8846
rfemur -27.9643 -5.17517 22.9006
rtibia 25.4362
rfoot -2.38731 -12.104
rtoes 10.894
lfemur -10.692 -4.22633 -13.5022
ltibia 44.8673
lfoot -7.2042 -3.98385
ltoes -15.237
224
root 27.4322 17.5685 4.59657 391.371 -80.2559 -386.191
lowerback -0.267222 0.391353 2.83462
upperback -0.838223 0.523053 0.0295194
thorax -0.68399 0.24166 -1.55986
lowerneck -15.9098 -2.83773 -6.27435
upperneck 6.02824 -3.55094 9.55072
head 4.68249 -1.31925 3.70064
rclavicle 1.14798e-014 1.66979e-014
rhumerus 27.8432 33.1361 -73.5958
rradius 82.8016
rwrist 26.6469
rhand -36.6414 -34.6346
rfingers 7.12502
rthumb -9.72872 -64.3899
lclavicle 1.14798e-014 1.66979e-014
lhumerus 24.7057 -31.0496 79.8154
lradius 79.4795
lwrist 13.2889
lhand -15.9568 39.3708
lfingers 7.12502
lthumb 10.2418 69.1014
rfemur -27.3899 -5.32431 23.472
rtibia 25.4604
rfoot -2.6144 -12.0766
rtoes 11.1985
lfemur -11.4971 -4.01282 -12.8495
ltibia 46.0821
lfoot -6.62832 -3.76774
ltoes -15.5131
